<?xml version="1.0" encoding="utf-8"?>
<!-- Generator: Adobe Illustrator 25.4.1, SVG Export Plug-In . SVG Version: 6.00 Build 0)  -->
<svg version="1.1" xmlns="http://www.w3.org/2000/svg" xmlns:xlink="http://www.w3.org/1999/xlink" x="0px" y="0px"
	 viewBox="0 0 450 450" style="enable-background:new 0 0 450 450;" xml:space="preserve">
<style type="text/css">
	.st0{display:none;}
	.st1{display:inline;}
	.st2{fill:#FF0013;}
	.st3{opacity:0.4;fill:#211F20;}
	.st4{fill:#E2E2E2;}
	.st5{opacity:0.25;}
	.st6{fill:#96CF24;}
	.st7{fill:#FFFFFF;}
	.st8{fill:#D20E15;}
	.st9{fill:#010101;}
	.st10{opacity:0.8;fill:#010101;}
	.st11{fill:#CED1D7;}
	.st12{opacity:0.6;fill:#D20E15;}
	.st13{clip-path:url(#SVGID_00000127738960764589672000000006162308818516817592_);}
	.st14{clip-path:url(#SVGID_00000038373828615850732410000002925817837521725083_);}
	.st15{clip-path:url(#SVGID_00000131342383730310238600000017861105221327337614_);fill:#D20E15;}
	.st16{fill:none;stroke:#D20E15;stroke-width:3;stroke-miterlimit:10;}
	.st17{fill:none;stroke:#FFFFFF;stroke-width:3;stroke-miterlimit:10;}
	.st18{fill:#006838;}
	.st19{fill:none;stroke:#96CF24;stroke-miterlimit:10;}
	.st20{fill:none;stroke:#006838;stroke-miterlimit:10;}
	.st21{fill:#F7F7F7;}
	.st22{fill:url(#SVGID_00000116924905600164559090000013658749943772048313_);}
	.st23{fill:url(#SVGID_00000139263605600170991820000014264039782499258774_);}
	.st24{fill:url(#SVGID_00000060015029991306780420000010239610696164856211_);}
	.st25{fill:#337FFF;}
	.st26{fill:#FF0000;}
	.st27{fill:#00D95F;}
	.st28{fill-rule:evenodd;clip-rule:evenodd;fill:#00D95F;}
	.st29{clip-path:url(#SVGID_00000152264502555084211010000005692607586431007386_);fill:#96CF24;}
	.st30{clip-path:url(#SVGID_00000152264502555084211010000005692607586431007386_);}
	.st31{clip-path:url(#SVGID_00000183935746947888164720000013092823665799637430_);fill:#96CF24;}
	.st32{clip-path:url(#SVGID_00000183935746947888164720000013092823665799637430_);}
	.st33{fill:none;}
	.st34{fill:#211F20;}
	.st35{fill:#505155;}
	.st36{fill:#F75C6C;}
	.st37{fill:none;stroke:#96CF24;stroke-width:1.5;stroke-miterlimit:10;}
	.st38{fill-rule:evenodd;clip-rule:evenodd;fill:#FFFFFF;}
	.st39{fill:none;stroke:#96CF24;stroke-width:4;stroke-linecap:round;stroke-miterlimit:10;}
	.st40{fill:#242326;}
	.st41{opacity:0.2;fill:#242326;}
	.st42{fill:#006838;enable-background:new    ;}
	.st43{opacity:0.3;fill:#242326;}
	.st44{enable-background:new    ;}
	.st45{clip-path:url(#SVGID_00000161628311308584505570000002114461261363346343_);}
	.st46{fill:#BBA436;}
	.st47{clip-path:url(#SVGID_00000150782198438762314470000017875706240187866529_);enable-background:new    ;}
	.st48{fill:#C3B339;}
	.st49{fill:#BEAD37;}
	.st50{fill:#BAA936;}
	.st51{fill:#B5A435;}
	.st52{fill:#B0A134;}
	.st53{fill:#AB9C32;}
	.st54{fill:#A59831;}
	.st55{fill:#BA3838;}
	.st56{clip-path:url(#SVGID_00000125579931642798584370000006382120608448387504_);enable-background:new    ;}
	.st57{fill:#A0932F;}
	.st58{fill:#9C8F2E;}
	.st59{fill:#978A2D;}
	.st60{fill:#92862C;}
	.st61{fill:#8D812B;}
	.st62{fill:#887E2A;}
	.st63{fill:#847928;}
	.st64{fill:#807527;}
	.st65{clip-path:url(#SVGID_00000019673967344860917310000009080006670166080681_);enable-background:new    ;}
	.st66{fill:#F6E046;}
	.st67{fill:#E55757;}
	.st68{fill:#D2BA43;}
	.st69{clip-path:url(#SVGID_00000082329917922319969830000005777255373234095285_);}
	.st70{clip-path:url(#SVGID_00000028289681224423384090000018073404905861318059_);enable-background:new    ;}
	.st71{clip-path:url(#SVGID_00000093153438279909607980000008744451356516965822_);enable-background:new    ;}
	.st72{clip-path:url(#SVGID_00000072277149750746622300000003039047183780096935_);enable-background:new    ;}
	.st73{clip-path:url(#SVGID_00000114784148425380284600000006378541751597177244_);}
	.st74{clip-path:url(#SVGID_00000065772595575432905660000005375184257289516721_);enable-background:new    ;}
	.st75{clip-path:url(#SVGID_00000030474167751775732990000003950742795826091430_);enable-background:new    ;}
	.st76{clip-path:url(#SVGID_00000057826454074160849040000015201030260288203451_);enable-background:new    ;}
	.st77{clip-path:url(#SVGID_00000104680374118281312350000000627237471943898553_);}
	.st78{clip-path:url(#SVGID_00000127012759257164607490000008442373141272381368_);enable-background:new    ;}
	.st79{clip-path:url(#SVGID_00000150820688569243587990000000451949134839138958_);enable-background:new    ;}
	.st80{clip-path:url(#SVGID_00000140002458562406995920000003787648226747294890_);enable-background:new    ;}
	.st81{clip-path:url(#SVGID_00000104704300260808240510000015375517562609888906_);}
	.st82{clip-path:url(#SVGID_00000090993898672314203280000011444618856981808778_);enable-background:new    ;}
	.st83{clip-path:url(#SVGID_00000171681380919100246220000014886228559858290080_);enable-background:new    ;}
	.st84{clip-path:url(#SVGID_00000129197597891926114450000008558572549225643418_);enable-background:new    ;}
	.st85{clip-path:url(#SVGID_00000021825080149175229970000012062246283431639177_);}
	.st86{clip-path:url(#SVGID_00000042017891803270802560000003908002251366188935_);enable-background:new    ;}
	.st87{clip-path:url(#SVGID_00000000940463386817695980000001501621521920410498_);enable-background:new    ;}
	.st88{clip-path:url(#SVGID_00000083088177125743449180000011382635292393572521_);enable-background:new    ;}
	.st89{clip-path:url(#SVGID_00000129196105249671096280000007632399035541435813_);}
	.st90{clip-path:url(#SVGID_00000062179898532026681020000003796306119240116373_);enable-background:new    ;}
	.st91{clip-path:url(#SVGID_00000051385930052579663180000017672328808805158298_);enable-background:new    ;}
	.st92{clip-path:url(#SVGID_00000101808725461950611670000001727706492868805264_);enable-background:new    ;}
	.st93{clip-path:url(#SVGID_00000120551227989678982410000001316771748640905127_);}
	.st94{clip-path:url(#SVGID_00000010272154156898120900000014484922918061796026_);enable-background:new    ;}
	.st95{clip-path:url(#SVGID_00000029755720545680441870000000776132360666084231_);enable-background:new    ;}
	.st96{clip-path:url(#SVGID_00000081642346216475095680000009942730720990398652_);enable-background:new    ;}
	.st97{clip-path:url(#SVGID_00000070093460505311860220000016951823003398379914_);}
	.st98{clip-path:url(#SVGID_00000124848230095889529390000007556616375355064749_);enable-background:new    ;}
	.st99{clip-path:url(#SVGID_00000165926396900468605530000003612209129759478926_);enable-background:new    ;}
	.st100{clip-path:url(#SVGID_00000082337707183369804180000018260624654287691659_);enable-background:new    ;}
	.st101{clip-path:url(#SVGID_00000118397675767217164790000008684830182717920147_);}
	.st102{clip-path:url(#SVGID_00000055671636722153788530000008837632428827751313_);enable-background:new    ;}
	.st103{clip-path:url(#SVGID_00000167357130627864758080000000044186909981631157_);enable-background:new    ;}
	.st104{clip-path:url(#SVGID_00000023959624054390713250000000910767148427983253_);enable-background:new    ;}
	.st105{clip-path:url(#SVGID_00000124132003653592421850000011985583274090875832_);}
	.st106{clip-path:url(#SVGID_00000083768441782707954400000011760822324280992917_);enable-background:new    ;}
	.st107{clip-path:url(#SVGID_00000111901543315222739970000000179525571615202970_);enable-background:new    ;}
	.st108{clip-path:url(#SVGID_00000147919224893366765300000000550751791187180219_);enable-background:new    ;}
	.st109{clip-path:url(#SVGID_00000163792723992040208770000016807342188176094089_);}
	.st110{clip-path:url(#SVGID_00000090271608825776020940000000360032992309211526_);enable-background:new    ;}
	.st111{clip-path:url(#SVGID_00000089566389033724915170000014132453952070051490_);enable-background:new    ;}
	.st112{clip-path:url(#SVGID_00000160161507808685591660000010791242304664073362_);enable-background:new    ;}
	.st113{clip-path:url(#SVGID_00000052085018957709512630000010198701434289608075_);}
	.st114{clip-path:url(#SVGID_00000124144437599936852670000018386345186981456271_);enable-background:new    ;}
	.st115{clip-path:url(#SVGID_00000089534099929676358830000011473117574975232401_);enable-background:new    ;}
	.st116{clip-path:url(#SVGID_00000124860723805212939250000013275662161629469864_);enable-background:new    ;}
	.st117{clip-path:url(#SVGID_00000134211051320366746150000000596049416280181434_);}
	.st118{clip-path:url(#SVGID_00000127003024359120823940000018088795381442553231_);enable-background:new    ;}
	.st119{clip-path:url(#SVGID_00000039113938687015924330000004745949899969951642_);enable-background:new    ;}
	.st120{clip-path:url(#SVGID_00000013881859503728484530000012631921759705354629_);enable-background:new    ;}
	.st121{clip-path:url(#SVGID_00000103975265700204473140000011361879757635107456_);}
	.st122{clip-path:url(#SVGID_00000098185875948772973310000014902635423507763387_);enable-background:new    ;}
	.st123{clip-path:url(#SVGID_00000043428328788078809110000009361761555444024720_);enable-background:new    ;}
	.st124{clip-path:url(#SVGID_00000101102457291847812630000012819239381601069497_);enable-background:new    ;}
	.st125{clip-path:url(#SVGID_00000095331136319535652850000016875165025446002096_);}
	.st126{clip-path:url(#SVGID_00000014602616017664221410000017953308426077239725_);enable-background:new    ;}
	.st127{clip-path:url(#SVGID_00000015330229200336974320000004959031383072817326_);enable-background:new    ;}
	.st128{clip-path:url(#SVGID_00000070817495992389171890000006640342490833162624_);enable-background:new    ;}
	.st129{clip-path:url(#SVGID_00000160170494913479171540000006729671847715997106_);}
	.st130{fill:#4A8258;}
	.st131{clip-path:url(#SVGID_00000044868750145148673050000010532713536759820985_);enable-background:new    ;}
	.st132{clip-path:url(#SVGID_00000041996997339660229960000017518429982888120755_);enable-background:new    ;}
	.st133{clip-path:url(#SVGID_00000161593727876387123960000004991818101338990266_);enable-background:new    ;}
	.st134{fill:#559669;}
	.st135{opacity:0.4;}
	.st136{fill:none;stroke:#FFFFFF;stroke-width:2;stroke-miterlimit:10;}
	
		.st137{clip-path:url(#SVGID_00000053514585744805919510000017925510819983388848_);fill:url(#SVGID_00000147899786089555296870000000737274749058258616_);}
	.st138{fill:none;stroke:#96CF24;stroke-width:7;stroke-miterlimit:10;}
	.st139{fill:none;stroke:#000000;stroke-width:7;stroke-miterlimit:10;}
	.st140{fill:#3B62A9;}
	.st141{fill:url(#SVGID_00000096737911063240472720000005084993710781671565_);}
	.st142{fill:url(#SVGID_00000019649831452206446380000016377055295049977278_);}
	.st143{fill:url(#SVGID_00000013151510926761264360000010241537378274324108_);}
	.st144{fill:url(#SVGID_00000039849764752668676940000015275452323235922865_);}
	.st145{fill:url(#SVGID_00000036959674137475376930000015337541203586320573_);}
	.st146{fill:url(#SVGID_00000092417185814294122210000011894053189555805355_);}
	.st147{fill:url(#SVGID_00000034049781154555402730000007188391015121507458_);}
	.st148{fill:url(#SVGID_00000160173423777032139550000018319794330784264099_);}
	.st149{fill:url(#SVGID_00000113311723754134126550000017538111513919928494_);}
	.st150{fill:url(#SVGID_00000052070100494825806560000016596391929509606578_);}
	.st151{fill:url(#SVGID_00000013886380391654698030000006506284268630043044_);}
	.st152{fill:url(#SVGID_00000141437539457779512590000003559793710126143919_);}
	.st153{fill:url(#SVGID_00000081639074373297318810000003889375949362046114_);}
	.st154{fill:url(#SVGID_00000066485188149880289170000000643740646097527990_);}
	.st155{fill:url(#SVGID_00000083799758169687213630000006603392457345214867_);}
	.st156{fill:url(#SVGID_00000160150835785351379640000014953531582934673818_);}
	.st157{fill:#FEFDFD;}
	.st158{fill:#A90834;}
	.st159{fill:none;stroke:#537130;stroke-miterlimit:10;}
	.st160{fill:#537130;}
	.st161{fill:#FEFEFE;}
	.st162{fill:#1F1F1C;}
	.st163{fill:#3F6EAD;}
	.st164{fill:#7D59A1;}
	.st165{fill:#714A98;}
	.st166{fill:#CBD24E;}
	.st167{fill:#673D8D;}
	.st168{fill:#8362A7;}
	.st169{fill:#F8F6FA;}
	.st170{fill:#2C2929;}
	.st171{fill:#FDFDFD;}
	.st172{fill:#272424;}
	.st173{fill:#2B4B88;}
	.st174{fill:#A3331F;}
	.st175{fill:url(#SVGID_00000057867685027943367470000007888813898069356679_);}
</style>
<g id="Guias">
</g>
<g id="Referente_x5F_1" class="st0">
</g>
<g id="Referente_2" class="st0">
</g>
<g id="Referente_x5F_3" class="st0">
</g>
<g id="Diseño">
	<circle class="st2" cx="225" cy="225" r="225"/>
	<g>
		<g>
			<path class="st7" d="M194.3,337.85l-0.28-0.2c0,0-0.34,0.02-0.34,0.02c-2.29-1.32-4.58-2.65-7.65-4.42
				c0,8.87,0.02,16.92-0.01,24.97c-0.01,4.67-3.26,9.42-6.33,8.84c-4.46-0.83-5.88-3.77-5.79-8.38c0.28-14.9,0.27-29.81,0.03-44.71
				c-0.14-8.47,0.98-16.51,5.35-23.89c0,0-0.25-0.01-0.24-0.01c0.66-0.13,1.06-0.47,1-1.2c0.15-0.22,0.19-0.45,0.11-0.7
				c0.71-0.42,1.57-0.7,2.12-1.27c9.24-9.7,20.45-12.09,33.16-9.03c7.65,3.55,14.46,8.12,18.24,16.02
				c9.13,19.09-1.12,40.43-22.04,45.22C205.75,340.12,200,339.29,194.3,337.85z M205.41,327.64c8.68,0.87,19.45-6.58,19.71-19.37
				c0.23-11.25-8.42-19.79-19.9-19.86c-10.51-0.07-19.07,8.63-19.22,19.53C185.85,318.99,194.26,327.53,205.41,327.64z"/>
			<path class="st7" d="M308.27,300.12c0.24,3.72,0.92,7.43,0.18,11.17c-0.22,0.14-0.31,0.33-0.27,0.58
				c-2.2,1.44-4.6,1.84-7.24,1.82c-12.71-0.09-25.43,0.07-38.14-0.08c-4.01-0.05-4.33,1.09-2.48,4.32
				c5.7,10.01,18.71,12.92,28.58,6.12c2.58-1.78,5.13-2.82,7.97-1.11c2.29,1.37,2.72,3.68,2.38,6.23c-0.31,2.33-2.1,3.42-3.7,4.58
				c-14.16,10.23-37.25,7.33-46.72-12.46c-2.73-5.71-3.97-11.68-3.51-17.99c0.88-0.43,0.89-1.28,1.12-2.1
				c2.75-9.75,7.98-17.49,17.63-21.63c13.45-5.77,25.38-3.02,36.14,6.39c0,0-0.04-0.04-0.04-0.04c0.77,0.98,1.53,1.96,2.3,2.94
				c-0.01,1.13,0.88,1.6,1.62,2.18C305.49,294.06,306.88,297.09,308.27,300.12z M261.47,296.83c-1.34,1.34-2.87,3.06-1.98,4.77
				c0.82,1.58,3.09,0.55,4.7,0.57c7.78,0.1,15.55,0.11,23.33,0.03c2.74-0.03,5.57,0.51,8.41-0.46c-9.06-15.93-24.6-17.93-34.49-4.84
				L261.47,296.83z"/>
			<path class="st7" d="M319.82,338.31c-0.22-0.22-0.43-0.43-0.65-0.65c-1.06-1.82-1.22-3.79-1.22-5.86
				c0.04-15.9,0.04-31.79-0.03-47.69c-0.01-2.11,0.44-3.99,1.4-5.81c0,0-0.09,0.02-0.1,0.02c2.02-1.15,4.08-2.15,6.52-1.53
				c3.09,4.89,6.46,3.91,11.24,1.8c15.73-6.93,34.69,3.75,38.65,21.24c0.26,1.15,0.23,2.36,1.1,3.29c-0.02,9.4-0.14,18.8-0.02,28.2
				c0.07,5.04-1.88,8.03-7.12,8.39c0,0-0.35,0.03-0.35,0.03c-3.61-1.85-4.73-4.87-4.64-8.82c0.18-8.14,0.03-16.28,0.09-24.42
				c0.03-5.19-1.45-9.68-5.59-13.05c0,0-0.13-0.14-0.13-0.14c-8.21-7.33-18.39-6.49-25.53,2.1c0,0-0.05,0.17-0.05,0.17
				c-3.31,3.25-3.74,7.43-3.75,11.73c0,8.13,0.06,16.26,0.01,24.4C329.61,338.59,326.49,340.63,319.82,338.31z"/>
			<g>
				<g>
					<path class="st7" d="M160.32,315.39c0,4.45-2.74,8.03-3.82,12.13c0,0,0,0.05,0,0.05c-11.33,17.03-26.77,25.29-47.51,22.39
						c-10.16-1.42-18.16-6.96-25.76-13.3c0,0,0.03,0.02,0.03,0.02c-2.63-3.82-5.26-7.63-7.89-11.45c0,0,0.09-0.32,0.09-0.32
						c-0.15-0.65-0.23-1.33-0.46-1.95c-6.49-17.28-3.94-33.03,7.89-47.26c0.51-0.62,0.79-1.43,1.17-2.16
						c0.5-0.57,1.01-1.14,1.51-1.71c0,0-0.16,0.06-0.16,0.06c0.31-0.45,0.61-0.91,0.92-1.36c8.13-3.85,15.7-9.11,25.09-9.72
						c3.18-0.21,6.35-0.65,9.5,0.24c-0.77,2.82-2.87,4.59-5.12,6.12c-4.92,3.33-9.91,6.55-14.92,9.75
						c-9.73,6.23-17.82,13.67-19.35,25.99c-1.43,11.57,2.44,21.39,11.31,28.53c10.6,8.54,22.9,12.05,36.26,7.22
						c10.43-3.77,18.94-10.49,25.71-19.33C156.23,317.48,157.48,315.33,160.32,315.39z"/>
					<path class="st7" d="M134.21,264.49c16.01,6.51,24.53,18.74,27.11,35.5c-5.39,4.44-9.23,10.32-14.01,15.32
						c-7.74,8.09-15.23,16.4-26.94,19.06c-16.14,3.67-32.4-7.86-33.07-24.37c-0.51-12.63,7.16-20.39,17.73-25.52
						c10.52-5.1,19.75-11.85,27.92-20.13c0.25,0.15,0.51,0.31,0.76,0.46c-0.12,0.11-0.24,0.22-0.36,0.33
						C133.64,264.92,133.92,264.7,134.21,264.49z"/>
				</g>
			</g>
		</g>
		<g>
			<path class="st7" d="M238.73,144.26c2.96-9.66,9.05-16.32,18.97-18.82c7.11-1.8,13.93-0.46,20.2,3.4
				c0.66,0.47,1.32,0.95,1.99,1.42c0,0-0.02-0.11-0.02-0.11c0.3,0.28,0.59,0.57,0.89,0.85c0,0-0.01,0.08-0.01,0.08
				c1.28,1.45,2.57,2.89,3.85,4.34c6.34,10.1,5.91,20.17-0.14,30.21c-4.68,5.71-10.63,9.27-17.9,10.62
				c-2.15-0.05-4.29-0.1-6.44-0.15c-0.46-0.09-0.92-0.18-1.38-0.27c-7.3-1.54-12.39-6.32-17.11-11.65c0.1-1.24-0.42-2.2-1.35-2.97
				c-0.3-0.88-0.6-1.75-0.89-2.63c0.03-0.51-0.08-0.94-0.61-1.15c-0.04-0.57-0.08-1.14-0.11-1.71c0.08-0.24,0.06-0.46-0.07-0.68
				c-0.03-2.89-0.06-5.79-0.1-8.68C238.56,145.64,238.64,144.95,238.73,144.26z M250.26,152.14c-0.1,0.58-0.17,1.15,0.47,1.5
				c1.26,4.49,3.74,7.88,8.39,9.31c7.06,2.48,13.62-0.31,16.81-7.16c2.96-6.35,0.65-13.11-5.69-16.63l0.01,0.1
				c-0.11-0.41-0.26-0.79-0.81-0.71c-0.18-0.06-0.37-0.08-0.55-0.07c-0.29-0.8-0.9-0.76-1.57-0.58c-0.46-0.06-0.93-0.12-1.39-0.19
				c-1.01-1.25-2.41-0.83-3.61-0.66c-6.6,0.93-10.79,4.63-11.77,10.77c-0.77,0.89-0.29,1.91-0.3,2.88
				C250.26,151.17,250.26,151.65,250.26,152.14z"/>
			<path class="st7" d="M237.39,136.37c-0.26,0.74-0.96,0.77-1.56,0.95c-8.9-0.95-14.15,3.83-14.73,13.42c0,7.6,0,15.2,0,22.79
				c-0.37,0.77,0.04,2.12-1.35,2.15c-3.2,0.06-6.4,0.08-9.59,0c-1.3-0.03-1.26-1.17-1.31-2.13c-0.06-1.42-0.14-2.83-0.21-4.25
				c0-13.84,0.01-27.67,0.01-41.51c0.15-0.11,0.17-0.24,0.04-0.38c3.76-0.98,7.59-0.09,11.37-0.43c1.06,1.48,0.02,3.26,1,5.44
				c3.27-3.66,7.05-6.33,11.79-7.06c1.51-0.23,3.52-1.72,4.41,1.02C237.32,129.71,237.35,133.04,237.39,136.37z"/>
			<path class="st7" d="M139.41,112.12c4.06,0.52,8.23-0.73,12.24,0.69c-0.06,3.45-0.17,6.9-0.16,10.35
				c0.05,17.28,0.12,34.55,0.19,51.83c-0.35,0.34-0.69,0.67-1.04,1.01c-3.56,0.01-7.11,0.01-10.67,0.02
				c-0.27-0.04-0.54-0.09-0.81-0.13c-0.23-0.06-0.47-0.13-0.7-0.19c0,0,0.16-0.04,0.16-0.04c-0.03-0.45-0.07-0.9-0.1-1.35
				c1.39-2.43,0.57-5.07,0.59-7.59C139.29,148.52,139.33,130.32,139.41,112.12z"/>
			<path class="st7" d="M227.19,214.38c-1.57-5.06-9.24-6.81-14.21-3.24c-0.84,0.6-1.38,1.68-2.6,1.7c-1.79-1.78-3.03-3.57-0.1-5.44
				c0,0-0.05,0.06-0.05,0.06c0.74-0.47,1.48-0.94,2.22-1.4c0,0-0.06,0.13-0.06,0.13c3.91-1.29,7.93-0.99,11.93-0.74
				c0,0-0.13-0.14-0.13-0.14c1.88,0.99,3.75,1.97,5.63,2.96c0,0-0.02-0.03-0.02-0.03c1.49,2.05,2.57,4.23,2.57,6.86
				c-0.01,6.76,0.02,13.52,0.03,20.29c0,1.32,0.09,2.68-1.69,3c-0.98-0.58-2.38,0.19-3.09-1.66c-0.69-1.8-1.72,0.12-2.56,0.57
				c-5.36,2.47-10.54,1.79-15.61-0.91c0,0,0.04,0.04,0.04,0.04c-0.5-0.66-1.07-1.28-1.49-1.99c-3.74-6.3-1.2-12.46,5.84-14.35
				c3.06-0.82,6.17-0.41,9.25-0.47C228.3,219.5,228.3,219.56,227.19,214.38z M218.78,234.59c6.56-0.06,9.18-2.72,8.99-9.06
				c-0.04-1.28-0.14-2.45-1.83-2.41c-3.54,0.08-7.11-0.51-10.6,0.5c-3.62,1.04-5.4,5.1-3.46,8.19
				C213.45,234.31,216.09,234.64,218.78,234.59z"/>
			<path class="st7" d="M317.45,232.84c0.01-0.2-0.02-0.4-0.08-0.6c0.2-2.61-0.06-5.27,0.84-7.81c0,0-0.02,0.02-0.02,0.02
				c3.08-3.73,7.09-5.14,11.85-4.91c2.46,0.12,4.93-0.06,7.4-0.1c0.64,0.06,1.02-0.18,1.03-0.86c-0.01-0.47-0.03-0.93-0.04-1.4
				c0.5-3-0.34-5.66-3.17-6.81c-3.87-1.57-7.92-1.66-11.5,0.99c-1.1,0.81-1.77,1.72-3.24,0.48c-1.53-1.31-1.74-2.14-0.08-3.54
				c1.88-1.6,4.1-2.27,6.31-3.07c1.79,0.01,3.58-0.08,5.35,0.04c7.51,0.47,11.13,3.97,11.37,11.4c0.2,6.31,0.03,12.62-0.02,18.94
				c-0.01,0.87,0.34,2.2-0.96,2.35c-1.27,0.14-3.06,1-3.73-0.82c-0.6-1.63-1.23-0.86-2.08-0.45c-7.12,3.45-13.09,2.59-18.48-2.64
				c0.12-0.12,0.12-0.23-0.01-0.34C317.93,233.42,317.69,233.13,317.45,232.84z M332.7,223.09c-2.14,0.04-4.26-0.13-6.38,0.49
				c-3.01,0.88-4.27,2.86-4.07,5.85c0.2,2.93,1.93,4.46,4.76,4.92c2.39,0.39,4.74,0.33,7.06-0.44c3.74-1.23,5.32-4.1,4.5-8.89
				c-0.62-3.64-3.68-1.23-5.51-1.92C332.95,223.05,332.82,223.09,332.7,223.09z"/>
			<path class="st7" d="M87.13,225.05c2.06,8.88,10.99,11.98,18.56,6.42c1.1-0.81,1.91-2.13,3.57-0.6c1.61,1.48,1.84,2.47-0.06,3.84
				c-5.63,4.05-11.64,5.36-18.13,2.5c-6.29-2.78-9.39-7.73-9.4-14.64c-0.01-3.69-0.15-7.37-0.21-11.05c-0.1-6.16,0.57-12.11,4.89-17
				c7.32-4.65,14.73-5.43,22.24-0.45l0.26,0.02c0,0,0.02-0.26,0.01-0.25c0.01,0.7,0.52,0.94,1.03,1.18c0,0,0.02,0.02,0.02,0.02
				c0.47,0.38,0.94,0.76,1.42,1.14c0,0-0.18,0.07-0.18,0.07s0.04,0.19,0.04,0.19c-0.14,0.2-0.19,0.42-0.16,0.66
				c0,0,0.11-0.17,0.11-0.16c-1.11,0.61-1.97,1.47-2.61,2.56c-0.5-0.05-0.99-0.1-1.49-0.15c-1.23-1.66-2.85-2.72-4.84-3.24
				c0,0-0.01,0.18-0.01,0.18c-4-1.84-7.71-1.43-11.09,1.47c0,0,0.05-0.06,0.05-0.06c-1.09,0.39-1.77,1.18-2.18,2.23
				c0,0,0.06-0.03,0.06-0.03c-1.37,1.32-1.91,3.04-2.01,4.82C86.63,211.5,86.4,218.28,87.13,225.05z"/>
			<path class="st7" d="M146.5,222.01c-0.22,1.76-0.34,3.55-0.69,5.29c-1.49,7.51-6.17,11.51-13.21,11.39
				c-6.77-0.12-11.39-4.3-12.52-11.76c-0.63-4.12-0.6-8.3,0.53-12.39c1.54-5.55,5.96-9.07,11.69-9.27c6.24-0.22,11,2.97,12.88,8.65
				C146.05,216.53,146.39,219.23,146.5,222.01z M141.52,222.7c0.02-3.18-0.11-5.68-0.97-8.06c-1.24-3.42-3.82-5.03-7.39-5.07
				c-3.89-0.04-6.48,1.67-7.67,5.12c-1.68,4.89-1.67,9.84,0.12,14.66c2.08,5.61,8.74,6.79,12.99,2.59
				C141.47,229.11,141.36,225.57,141.52,222.7z"/>
			<path class="st7" d="M297.37,150.03c-0.67-0.27-0.74-0.92-0.94-1.49c0-2.87,0-5.75,0-8.62c0.08-0.4,0.17-0.79,0.25-1.19
				c8.45-0.03,16.9-0.01,25.34-0.13c1.11-0.02,2.62,0.83,3.37-0.85l0.1,0.14c0,0,0.13-0.1,0.13-0.11c0.66,1.57,2.07,0.46,3.06,0.85
				c0.01,0.24,0.09,0.45,0.25,0.62c-0.04,2.36-0.27,4.74-0.06,7.08c0.26,2.8-0.67,3.61-3.51,3.58
				C316.05,149.79,306.71,149.97,297.37,150.03z"/>
			<path class="st7" d="M243.72,206.48c3.66-1.48,4.47-1.24,5.47,1.53c3.96-2.8,8.31-3.5,12.92-2.11c4.47,1.35,7.03,4.71,7.3,9.14
				c0.43,6.99,0.22,14.01,0.31,21.02c0.03,1.87-1.08,2.02-2.55,2.06c-1.74,0.04-2.24-0.76-2.23-2.37
				c0.03-6.06,0.09-12.13-0.07-18.19c-0.15-5.51-2.66-7.92-7.9-7.98c-5.04-0.06-8.03,2.85-8.17,8.27
				c-0.14,5.23-0.02,10.46-0.02,15.69c0,4.8-0.01,4.8-4.92,4.38C243.82,227.44,243.77,216.96,243.72,206.48z"/>
			<path class="st7" d="M187.32,238.7c-5.11-0.06-8.88-0.96-12.26-3.19c-0.8-0.53-2.26-1.11-0.98-2.39
				c0.85-0.85,1.55-2.88,3.37-1.28c4.37,3.86,9.45,2.22,14.28,1.7c2.38-0.26,3.35-2.38,3.34-4.81c-0.01-2.6-1.46-3.99-3.82-4.39
				c-3.04-0.52-6.16-0.66-9.18-1.25c-4.84-0.95-7.01-3.24-7.43-7.39c-0.42-4.18,1.8-7.82,6.14-9.42c5.18-1.91,10.32-1.38,15.23,1.07
				c0.78,0.39,2.5,0.69,1.41,2.19c-0.77,1.05-1.62,2.54-3.46,1.52c-2.93-1.62-6.1-1.95-9.36-1.58c-3.02,0.34-5.35,1.64-5.33,5.08
				c0.02,3.3,2.31,4.45,5.18,4.79c2.48,0.3,4.99,0.45,7.46,0.82c4.76,0.71,7.22,3.11,7.86,7.46c0.57,3.89-1.58,7.65-5.52,9.48
				C191.7,238.29,189.02,238.8,187.32,238.7z"/>
			<path class="st7" d="M375.33,207.27c0.27,0.56,0.76,0.78,1.35,0.83c0.21,1-0.44,1.65-0.97,2.34l0.1,0.23c0,0,0.23-0.1,0.22-0.1
				c-0.61,0-0.9,0.29-0.84,0.91l0.07-0.26c0,0-0.26-0.07-0.26-0.07c-0.2,0.2-0.4,0.4-0.59,0.61c-3.68-1.83-7.49-2.89-11.66-2.19
				c-3.01,0.51-4.76,2.04-4.59,5.24c0.16,3.01,1.96,4.31,4.81,4.56c1.88,0.17,3.74,0.6,5.62,0.73c8.66,0.59,11.8,5.32,8.83,13.41
				c0,0,0.01,0.01,0.01,0.01c-0.41,0.14-0.64,0.4-0.55,0.85c-2.12,1.4-3.96,3.2-6.62,3.79c-6.41,1.4-12.25,0.18-17.69-3.33
				c-0.01-0.62-0.03-1.23-0.04-1.85c0.75-0.21,1.18-0.75,1.5-1.41c0.97-0.46,1.69-0.18,2.57,0.46c3.7,2.74,7.96,3,12.29,2.19
				c2.92-0.55,5.12-2.14,5.04-5.51c-0.08-3.38-2.44-4.23-5.3-4.61c-2.96-0.39-5.91-0.67-8.9-0.48c-0.14-0.19-0.23-0.44-0.42-0.55
				c-5.17-3.05-6.64-5.52-5.82-9.78c0.85-4.43,4.35-7.31,9.7-7.97C367.41,204.8,371.4,205.85,375.33,207.27z"/>
			<path class="st7" d="M298.91,195.8c1.6,0,3.2-0.01,4.8-0.01c0.02,1.3,0.04,2.59,0.05,3.89c0.02,6.33,0.02,6.33,6.47,6.02
				c0.46,1.2,2.02,2.19,0.73,3.73c-1.3,0.03-2.62,0.22-3.91,0.07c-2.71-0.32-3.44,0.78-3.34,3.43c0.21,5.57,0.09,11.15,0.06,16.72
				c-0.01,2.73,1.35,4.53,3.97,4.43c3.01-0.11,3.33,1.39,3.12,3.67c-0.45,0.2-0.89,0.41-1.34,0.61c-9.08-0.9-10.64-2.61-10.64-11.76
				c0-4.74-0.04-9.49,0.03-14.23c0.02-1.73-0.05-3.11-2.38-2.85c-1.11,0.12-1.78-0.48-1.76-1.69c0.01-0.97-0.06-2.12,1.33-1.98
				c2.68,0.26,2.68-1.47,2.7-3.31C298.8,200.3,298.87,198.05,298.91,195.8z"/>
			<path class="st7" d="M161.42,238.05c-3.88-1.98-5.06-5.33-5.04-9.44c0.06-11.41,0.01-22.83,0.05-34.25c0-1.09-0.6-2.66,0.88-3.13
				c1.39-0.44,3.08-0.82,4.11,0.95c-0.05,12.29-0.1,24.58-0.13,36.88c0,0.9-0.17,1.93,0.81,2.55c1.46,2.12,3.24,3.34,5.9,2.11
				c0.2,1.47,0.46,2.94,0.1,4.42c-0.25,0.11-0.5,0.21-0.75,0.32C165.37,238.33,163.4,238.19,161.42,238.05z"/>
			<path class="st7" d="M282.37,238.77c-0.47-0.26-0.94-0.51-1.41-0.77c0-10.52,0-21.03,0.01-31.55c4.43-1.65,4.98-1.31,4.98,3.13
				c0.01,8.32,0.01,16.64,0,24.96c0,1.39,0.29,2.86-0.78,4.06C284.23,238.66,283.3,238.72,282.37,238.77z"/>
			<path class="st7" d="M286.92,193.21c-0.19,1.98-1.04,3.59-3.06,3.83c-2.21,0.27-3.22-1.47-3.39-3.3
				c-0.2-2.06,1.18-3.48,3.17-3.55C285.41,190.13,286.73,191.23,286.92,193.21z"/>
			<path class="st7" d="M125.38,135.57c-2.98,0.68-5.39-0.63-7.71-3.96c-4.83-6.92-13.8-9.12-21.71-6.14
				c-7.97,3.01-12.78,10.47-12.49,19.36c0.26,8.06,5.97,15.48,13.7,17.8c8.21,2.46,16.9-0.5,21.56-7.82
				c1.38-2.18,2.73-2.79,5.05-2.61c2.25,0.18,4.53,0.09,6.79,0.02c1.99-0.06,2.4,0.49,1.74,2.51
				c-4.16,12.72-17.98,21.95-31.46,20.84c-14.91-1.22-27.18-12.43-29.03-26.52c-2.12-16.14,6.21-30.24,20.91-35.41
				c15.47-5.44,32.8,2.63,39.09,18.21c1.46,3.61,1.38,3.73-2.42,3.71C128.33,135.56,127.26,135.57,125.38,135.57z"/>
			<path class="st7" d="M188.66,171.93c-5.77,2.45-11.16,4.1-16.96,3.81c-6.8-0.35-11.51-4.16-12.8-10.33
				c-1.55-7.39,1.28-14.07,7.17-17.1c5.21-2.68,11-2.92,16.6-3.92c2.71-0.48,5.48-0.87,5.36-4.41c-0.11-3.55-2.66-4.69-5.8-5.03
				c-5.61-0.6-7.77,0.44-10.15,5.45c-0.63,1.33-1.56,1.31-2.58,1.34c-2.26,0.05-4.53-0.15-6.78,0.02c-2.46,0.18-3.16-0.8-2.76-3.11
				c1.1-6.29,4.42-10.87,10.6-12.68c7.24-2.11,14.54-1.97,21.72,0.72c5.6,2.1,8.31,6.31,8.39,12.04
				c0.17,11.43,0.01,22.86,0.11,34.28c0.02,2.25-0.79,2.94-2.89,2.79c-1.78-0.12-3.57-0.05-5.36,0.01
				C190.03,175.9,187.37,176.24,188.66,171.93z M187.79,151.51c-3,0.76-5.51,1.39-8.01,2.04c-1.82,0.47-3.72,0.78-5.44,1.51
				c-2.88,1.21-3.86,3.75-3.61,6.67c0.23,2.71,1.66,4.63,4.49,5.25c5.98,1.3,11.95-2.89,12.54-8.95
				C187.96,155.93,187.79,153.79,187.79,151.51z"/>
			<path class="st7" d="M290.64,126.93c-0.9-1.25-1.6-2.54-2.59-3.54c-4.49-4.51-4.53-4.49-0.15-8.88
				c7.63-7.66,15.31-15.27,22.87-23c1.69-1.73,2.67-1.88,4.48,0.02c5.39,5.65,5.51,5.56,0.11,10.95
				c-7.4,7.39-14.81,14.76-22.22,22.13C292.56,125.18,291.94,125.72,290.64,126.93z"/>
			<path class="st7" d="M259.55,114.73c0-9.32-0.01-18.64,0.02-27.96c0-1.28-0.28-2.61,0.44-3.81c3.17,0.18,6.35,0.41,9.51-0.08
				c0.17,0.14,0.37,0.18,0.58,0.12c0.26,0.38,0.52,0.77,0.78,1.15c0.01,9.78,0.03,19.56,0.04,29.34c-0.35,1.34-1.39,1.4-2.51,1.37
				C265.46,114.81,262.5,114.77,259.55,114.73z"/>
		</g>
	</g>
</g>
</svg>
