<svg id="Capa_1" data-name="Capa 1" xmlns="http://www.w3.org/2000/svg" viewBox="0 0 892.35 229.66"><defs><style>.cls-1{fill:#479ed8;}</style></defs><path class="cls-1" d="M14.57,50.21h86.05V79.26H46.4v23.6H98.92v27.35H46.76v49.62H14.45S14.27,49.91,14.57,50.21Z"/><path class="cls-1" d="M146.85,50.34h32.07v77.57s-1.81,26.14,25.17,26S230,129.85,230,129.85V50.58h30V134s-6.3,46.49-54.46,47.08c-50.45.63-58.82-44.29-58.82-50.34S146.85,50.34,146.85,50.34Z"/><polygon class="cls-1" points="411.27 111.03 346.59 16.75 285.31 17.02 349.47 110.77 411.27 111.03"/><polygon class="cls-1" points="411.27 118.89 349.21 118.89 285.57 212.64 347.64 212.38 411.27 118.89"/><polygon class="cls-1" points="419.13 121.77 388.75 165.77 420.96 212.91 482.51 212.91 419.13 121.77"/><polygon class="cls-1" points="388.23 62.58 419.39 108.15 482.25 17.28 419.65 17.28 388.23 62.58"/><polygon class="cls-1" points="513.67 50.54 544.84 50.54 544.84 179.65 513.41 179.65 513.67 50.54"/><polygon class="cls-1" points="758.01 49.23 848.36 121.25 848.36 51.59 877.95 51.59 877.95 180.17 787.6 109.46 787.6 179.38 757.49 179.38 758.01 49.23"/><path class="cls-1" d="M651,48.71c-45-.44-67.7,29.48-67.7,65.85s27.18,66.74,67.7,65.85c43.47-.95,67.7-29.48,67.7-65.85S697,49.16,651,48.71Zm.13,105c-21.47.52-35.88-17.47-35.88-39s12.05-39.28,35.88-39C675.52,76,687,93.15,687,114.7S674.2,153.16,651.16,153.72Z"/></svg>